<?xml version="1.0" standalone="no"?>
<!DOCTYPE svg PUBLIC "-//W3C//DTD SVG 20010904//EN" "http://www.w3.org/TR/2001/REC-SVG-20010904/DTD/svg10.dtd">
<svg version="1.0" xmlns="http://www.w3.org/2000/svg" width="512.000000pt" height="512.000000pt"
    viewBox="0 0 512.000000 512.000000" preserveAspectRatio="xMidYMid meet">
    <g transform="translate(0.000000,512.000000) scale(0.100000,-0.100000)" fill="currentColor" stroke="none">
        <path d="M0 3255 l0 -1295 1008 0 1009 0 6 128 c4 70 16 170 27 222 11 52 20
101 20 108 0 9 -168 12 -805 12 l-805 0 0 830 0 830 2100 0 2100 0 0 -367 1
-368 65 -50 c91 -70 238 -224 314 -331 35 -49 67 -93 72 -98 4 -6 8 369 8 832
l0 842 -2560 0 -2560 0 0 -1295z" />
        <path d="M3592 3359 c-474 -44 -902 -338 -1115 -766 -283 -567 -147 -1253 330
-1675 333 -294 803 -411 1243 -307 527 124 932 541 1047 1079 26 121 26 439 0
560 -106 493 -459 890 -929 1044 -182 60 -388 83 -576 65z m379 -412 c178 -46
332 -133 458 -258 154 -152 253 -336 292 -541 17 -91 14 -288 -5 -381 -118
-554 -677 -911 -1221 -778 -187 46 -337 132 -481 275 -145 146 -233 309 -276
516 -16 77 -19 120 -15 225 10 269 105 484 296 676 164 163 357 258 596 293
76 11 262 -3 356 -27z" />
        <path d="M3540 2370 l0 -210 -210 0 -210 0 0 -185 0 -185 210 0 210 0 0 -215
0 -215 190 0 190 0 0 215 0 215 210 0 210 0 0 185 0 185 -210 0 -210 0 0 210
0 210 -190 0 -190 0 0 -210z" />
    </g>
</svg>