<?xml version="1.0" standalone="no"?>
<!DOCTYPE svg PUBLIC "-//W3C//DTD SVG 20010904//EN" "http://www.w3.org/TR/2001/REC-SVG-20010904/DTD/svg10.dtd">
<svg version="1.0" xmlns="http://www.w3.org/2000/svg" width="512.000000pt" height="512.000000pt"
    viewBox="0 0 512.000000 512.000000" preserveAspectRatio="xMidYMid meet">
    <g transform="translate(0.000000,512.000000) scale(0.100000,-0.100000)" stroke="none">
        <path d="M0 3255 l0 -1295 1008 0 1009 0 6 128 c4 70 16 170 27 222 11 52 20
101 20 108 0 9 -168 12 -805 12 l-805 0 0 830 0 830 2100 0 2100 0 0 -367 1
-368 65 -50 c92 -70 240 -227 314 -332 34 -48 66 -92 71 -97 5 -6 9 345 9 832
l0 842 -2560 0 -2560 0 0 -1295z" />
        <path d="M3592 3359 c-536 -50 -1001 -414 -1181 -922 -225 -638 37 -1343 625
-1681 242 -139 544 -204 819 -176 198 20 344 63 517 152 371 190 635 540 725
958 26 121 26 439 0 560 -59 274 -186 507 -388 710 -289 291 -702 438 -1117
399z m379 -412 c384 -99 677 -411 750 -798 17 -92 14 -289 -5 -382 -118 -554
-677 -911 -1221 -778 -318 78 -590 315 -706 616 -95 244 -91 514 12 761 90
216 299 428 514 522 115 50 142 57 305 86 65 12 258 -3 351 -27z" />
        <path d="M3090 2020 l0 -190 645 0 645 0 0 190 0 190 -645 0 -645 0 0 -190z" />
    </g>
</svg>