<svg width="24" height="24" viewBox="0 0 24 24" fill="none" xmlns="http://www.w3.org/2000/svg">
<g clip-path="url(#clip0_12959_186736)">
<path d="M18.4492 5.82422L15.1719 2.54688C14.8203 2.19531 14.3438 1.99609 13.8477 1.99609H5.875C4.83984 2 4 2.83984 4 3.875V20.125C4 21.1602 4.83984 22 5.875 22H17.125C18.1602 22 19 21.1602 19 20.125V7.15234C19 6.65625 18.8008 6.17578 18.4492 5.82422ZM16.9727 7H14V4.02734L16.9727 7ZM5.875 20.125V3.875H12.125V7.9375C12.125 8.45703 12.543 8.875 13.0625 8.875H17.125V20.125H5.875ZM14.4727 12C14.25 12 14.0586 12.1563 14.0156 12.3711C13.2109 16.1875 13.2187 16.0977 13.1953 16.4141C13.1875 16.3672 13.1797 16.3125 13.168 16.2461C13.1367 16.0469 13.1797 16.2539 12.2461 12.3594C12.1953 12.1484 12.0078 12 11.7891 12H11.2695C11.0547 12 10.8672 12.1484 10.8125 12.3555C9.85937 16.2227 9.875 16.1133 9.84375 16.4062C9.83984 16.3633 9.83594 16.3086 9.82422 16.2422C9.79688 16.0391 9.27344 13.3789 9.07812 12.375C9.03516 12.1563 8.84375 11.9961 8.61719 11.9961H7.96094C7.65625 11.9961 7.43359 12.2813 7.50391 12.5742C7.81641 13.8477 8.54688 16.8516 8.80078 17.8867C8.85156 18.0977 9.03906 18.2422 9.25781 18.2422H10.2422C10.457 18.2422 10.6445 18.0977 10.6953 17.8867L11.3945 15.0977C11.4531 14.8555 11.4922 14.6289 11.5117 14.4219L11.625 15.0977C11.6289 15.1133 12.1172 17.0703 12.3242 17.8867C12.375 18.0938 12.5625 18.2422 12.7773 18.2422H13.7422C13.957 18.2422 14.1445 18.0977 14.1953 17.8867C15.0078 14.6875 15.375 13.2383 15.543 12.5742C15.6172 12.2773 15.3945 11.9922 15.0898 11.9922H14.4727V12Z" fill="currentColor"/>
</g>
<defs>
<clipPath id="clip0_12959_186736">
<rect width="15" height="20" fill="white" transform="translate(4 2)"/>
</clipPath>
</defs>
</svg>
