<!-- TODO: перенести в SBER-CRM-UI -->
<svg width="64" height="64" viewBox="0 0 64 64" fill="none" xmlns="http://www.w3.org/2000/svg">
    <path d="M43.2188 47.1875H34.7812C34.3151 47.1875 33.9375 47.5651 33.9375 48.0312V49.7188C33.9375 50.1849 34.3151 50.5625 34.7812 50.5625H43.2188C43.6849 50.5625 44.0625 50.1849 44.0625 49.7188V48.0312C44.0625 47.5651 43.6849 47.1875 43.2188 47.1875ZM20.4375 30.3125V40.4375C20.4375 41.3698 21.1927 42.125 22.125 42.125H42.375C43.3073 42.125 44.0625 41.3698 44.0625 40.4375V30.3125C44.0625 29.3802 43.3073 28.625 42.375 28.625H22.125C21.1927 28.625 20.4375 29.3802 20.4375 30.3125ZM23.8125 32H40.6875V38.75H23.8125V32ZM51.0055 15.3338L42.1577 6.48711C41.2085 5.53789 39.9218 5 38.5834 5H17.0614C14.2676 5.01055 12 7.27813 12 10.072V53.9386C12 56.7324 14.2676 59 17.0614 59H47.4301C50.225 59 52.5 56.7324 52.5 53.9386V18.9187C52.5 17.5803 51.9547 16.283 51.0055 15.3338ZM38.9947 10.4833L47.0198 18.5074H38.9947V10.4833ZM47.4375 53.9386H17.0614V10.072H33.9333V21.0386C33.9333 22.4414 35.0618 23.5688 36.4645 23.5688H47.4375V53.9386ZM21.2812 16.8125H29.7188C30.1849 16.8125 30.5625 16.4349 30.5625 15.9688V14.2812C30.5625 13.8151 30.1849 13.4375 29.7188 13.4375H21.2812C20.8151 13.4375 20.4375 13.8151 20.4375 14.2812V15.9688C20.4375 16.4349 20.8151 16.8125 21.2812 16.8125ZM21.2812 23.5625H29.7188C30.1849 23.5625 30.5625 23.1849 30.5625 22.7188V21.0312C30.5625 20.5651 30.1849 20.1875 29.7188 20.1875H21.2812C20.8151 20.1875 20.4375 20.5651 20.4375 21.0312V22.7188C20.4375 23.1849 20.8151 23.5625 21.2812 23.5625Z" fill="currentColor"/>
</svg>
