<svg width="24" height="24" viewBox="0 0 24 24" fill="none" xmlns="http://www.w3.org/2000/svg">
<path d="M20.4351 6.93513L17.0649 3.56487C16.7032 3.20319 16.2127 3 15.7012 3H4.92857C3.86344 3 3 3.86344 3 4.92857V19.0714C3 20.1366 3.86344 21 4.92857 21H19.0714C20.1366 21 21 20.1366 21 19.0714V8.29883C21 7.78734 20.7968 7.2968 20.4351 6.93513ZM13.9286 4.92857V8.14286H8.78571V4.92857H13.9286ZM18.8304 19.0714H5.16964C5.10571 19.0714 5.04439 19.046 4.99918 19.0008C4.95397 18.9556 4.92857 18.8943 4.92857 18.8304V5.16964C4.92857 5.10571 4.95397 5.04439 4.99918 4.99918C5.04439 4.95397 5.10571 4.92857 5.16964 4.92857H6.85714V9.10714C6.85714 9.63971 7.28886 10.0714 7.82143 10.0714H14.8929C15.4254 10.0714 15.8571 9.63971 15.8571 9.10714V5.08454L19.0008 8.22824C19.0232 8.25063 19.041 8.2772 19.0531 8.30645C19.0652 8.3357 19.0714 8.36705 19.0714 8.39871V18.8304C19.0714 18.8943 19.046 18.9556 19.0008 19.0008C18.9556 19.046 18.8943 19.0714 18.8304 19.0714ZM12 11.0357C10.0504 11.0357 8.46429 12.6218 8.46429 14.5714C8.46429 16.521 10.0504 18.1071 12 18.1071C13.9496 18.1071 15.5357 16.521 15.5357 14.5714C15.5357 12.6218 13.9496 11.0357 12 11.0357ZM12 16.1786C11.1138 16.1786 10.3929 15.4576 10.3929 14.5714C10.3929 13.6853 11.1138 12.9643 12 12.9643C12.8862 12.9643 13.6071 13.6853 13.6071 14.5714C13.6071 15.4576 12.8862 16.1786 12 16.1786Z" fill="currentColor"/>
</svg>
