<svg width="15" height="15" viewBox="0 0 15 15" fill="none" xmlns="http://www.w3.org/2000/svg">
    <path
        d="M4.736 14.928V13.696H3.904C2.88 13.696 2.592 13.056 2.592 12.16V9.68C2.592 8.56 2.384 7.712 1.264 7.456C2.384 7.152 2.592 6.432 2.592 5.28V2.704C2.592 1.824 2.88 1.232 3.904 1.232H4.736V0H3.712C1.824 0 1.232 1.088 1.232 2.48V5.264C1.232 6.256 0.816 6.88 0 6.912V8.016C0.816 8.048 1.232 8.624 1.232 9.648V12.384C1.232 13.792 1.824 14.928 3.712 14.928H4.736Z"
        fill="currentColor" />
    <path
        d="M10.0461 14.928H11.0701C12.9581 14.928 13.5501 13.84 13.5501 12.448V9.664C13.5501 8.672 13.9661 8.048 14.7821 8.016V6.912C13.9661 6.88 13.5501 6.304 13.5501 5.28V2.48C13.5501 1.088 12.9581 0 11.0701 0H10.0461V1.232H10.8781C11.9021 1.232 12.1901 1.824 12.1901 2.704V5.232C12.1901 6.368 12.3981 7.216 13.5181 7.456C12.3981 7.776 12.1901 8.496 12.1901 9.648V12.224C12.1901 13.104 11.9021 13.696 10.8781 13.696H10.0461V14.928Z"
        fill="currentColor" />
</svg>